<?xml version="1.0" encoding="utf-8"?>
<!-- Generator: Adobe Illustrator 18.0.0, SVG Export Plug-In . SVG Version: 6.00 Build 0)  -->
<!DOCTYPE svg PUBLIC "-//W3C//DTD SVG 1.1//EN" "http://www.w3.org/Graphics/SVG/1.1/DTD/svg11.dtd">
<svg version="1.1" id="Layer_1" xmlns="http://www.w3.org/2000/svg" xmlns:xlink="http://www.w3.org/1999/xlink" x="0px" y="0px"
	 viewBox="0 0 690.6 207.8" enable-background="new 0 0 690.6 207.8" xml:space="preserve">
<g>
	<path fill="#FFE204" d="M102.2,0h48.5v71.8h0.6c10-13.7,23.9-20.5,42.2-20.5c41.9,0,62.4,36.5,62.4,75c0,41.6-19.7,81.5-66.1,81.5
		c-17.1,0-31.4-7.4-40.8-21.4h-0.6v17.1h-46.2V0z M148.9,128c0,25.9,7.4,42.8,29.4,42.8c21.7,0,29.1-22.5,29.1-42.8
		c0-18.8-7.4-39.6-28.8-39.6C165.4,88.4,148.9,97.5,148.9,128z"/>
	<path fill="#FFE204" d="M338.1,51.3c45.9,0,78.1,33.9,78.1,78.4c0,44.5-32.2,78.1-78.1,78.1c-45.9,0-77.8-33.6-77.8-78.1
		C260.3,85.2,292.3,51.3,338.1,51.3z M338.1,170.7c22.5,0,29.6-22.2,29.6-41c0-18.8-7.1-41.3-29.6-41.3c-22.5,0-29.4,22.5-29.4,41.3
		C308.8,148.5,315.6,170.7,338.1,170.7z"/>
	<path fill="#FFE204" d="M574.4,203.5h-47v-20.2h-0.6c-9.1,15.1-27.9,24.5-45,24.5c-42.5,0-54.7-24.5-54.7-63.3V55.6h48.5v85.8
		c0,19.7,8.5,26.5,23.9,26.5c10.5,0,26.5-6.8,26.5-33.1V55.6h48.5V203.5z"/>
	<path fill="#FFE204" d="M603.5,10.8v44.7H579v31.4h24.5v65.8c0,7.7,0.4,14.4,1.3,20.2l47.1-119.1v-43H603.5z"/>
	<polygon fill="#FFE204" points="26.9,0 0,0 0,56.4 0.1,56.4 22.7,127.7 0,127.7 0,167 35.2,167 47.7,203.5 103,203.5 	"/>
</g>
<circle fill="#DB0E49" cx="671.3" cy="184.4" r="19.4"/>
</svg>
