<?xml version="1.0" encoding="utf-8"?>
<!-- Generator: Adobe Illustrator 18.0.0, SVG Export Plug-In . SVG Version: 6.00 Build 0)  -->
<!DOCTYPE svg PUBLIC "-//W3C//DTD SVG 1.1//EN" "http://www.w3.org/Graphics/SVG/1.1/DTD/svg11.dtd">
<svg version="1.1" id="Layer_1" xmlns="http://www.w3.org/2000/svg" xmlns:xlink="http://www.w3.org/1999/xlink" x="0px" y="0px"
	 viewBox="0 442.5 595.3 398.5" enable-background="new 0 442.5 595.3 398.5" xml:space="preserve">
<g>
	<path fill="#00FFFC" d="M220.1,629.6c1.2,26,16.1,43.2,42.5,43.2c15,0,29.7-6.9,35.5-20.8h58.2c-11.3,44-52.1,63-94.5,63
		c-62,0-104-37.4-104-101.2c0-58.2,46.5-100,102.6-100c68.1,0,102.2,51.3,99.2,115.8H220.1L220.1,629.6z M297.4,594.9
		c-1.2-21.2-16.1-38.8-37-38.8c-22,0-36.6,15.8-40.4,38.8C220.1,594.9,297.4,594.9,297.4,594.9z"/>
	<path fill="#00FFFC" d="M386.4,462v57.5h-31.5v40.3h31.5v84.6c0,9.9,0.5,18.5,1.7,26l60.5-153.1V462H386.4z"/>
	<g>
		<path fill="#00FFFC" d="M0,504.9c6.4-2.4,13.6-3.9,21.9-3.9c27.5,0,49.5,13.5,51.7,35.9h68.1c-6.2-65.6-64-94.5-118.3-94.5
			c-8.1,0-15.9,0.6-23.4,1.8C0,444.3,0,504.9,0,504.9z"/>
		<path fill="#00FFFC" d="M34.3,566.2v50.5H82c-3.6,23.8-26.4,39.6-60,39.6c-8.2,0-15.6-1.4-21.9-3.9v60.5
			c7.5,1.2,15.3,1.8,23.4,1.8c24.2,0,55-8.7,72.9-34.1l4,28.5h44V566.2H34.3z"/>
	</g>
</g>
<g>
	<path fill="#FFFFFF" d="M58.5,753.8H33.8v-18.9h24.7V753.8z M33.8,763.2h24.7v75.5H33.8V763.2z"/>
	<path fill="#FFFFFF" d="M68.6,763.2h23.9v10.3h0.3c4.5-7.7,14.7-12.5,23.7-12.5c25.1,0,27.1,18.3,27.1,29.2v48.3H119V802
		c0-10.3,1.2-20.8-12.3-20.8c-9.3,0-13.4,7.8-13.4,16.1v41.1H68.6V763.2z"/>
	<path fill="#FFFFFF" d="M236.9,779.1h-15.3v34.3c0,5.9,3.5,7.3,8.9,7.3c2.1,0,4.2-0.3,6.4-0.3v18.3c-4.5,0.1-9,0.8-13.5,0.8
		c-21.1,0-26.5-6-26.5-26.6v-33.5h-12.5v-15.9h12.5v-22.8h24.7v22.8h15.3L236.9,779.1L236.9,779.1z"/>
	<path fill="#FFFFFF" d="M276.6,761c23.4,0,39.8,17.2,39.8,40c0,22.6-16.5,39.8-39.8,39.8c-23.3,0-39.7-17.1-39.7-39.8
		C237,778.4,253.2,761,276.6,761z M276.6,822c11.4,0,15.2-11.3,15.2-21c0-9.7-3.6-21.1-15.2-21.1c-11.6,0-14.9,11.4-14.9,21.1
		C261.7,810.6,265.2,822,276.6,822z"/>
	<path fill="#FFFFFF" d="M397.1,838.7h-23.9v-10.3h-0.4c-4.6,7.7-14.3,12.5-23,12.5c-21.6,0-27.9-12.5-27.9-32.3v-45.4h24.7v43.7
		c0,10,4.4,13.5,12.2,13.5c5.4,0,13.5-3.5,13.5-16.8v-40.4H397L397.1,838.7L397.1,838.7z"/>
	<path fill="#FFFFFF" d="M455.4,790.8c-0.1-6.4-5.8-10.9-12.1-10.9c-13.8,0-15.9,11.8-15.9,22.2c0,9.8,4.2,19.8,14.7,19.8
		c8.6,0,13-4.9,14.1-13h23.9c-2.2,20.2-17.9,31.8-37.9,31.8c-22.6,0-39.5-15.6-39.5-38.7c0-23.9,15.3-41.1,39.5-41.1
		c18.8,0,35.5,9.9,37.1,29.8h-23.9L455.4,790.8L455.4,790.8z"/>
	<path fill="#FFFFFF" d="M533.2,761c-9,0-19.2,4.8-23,12.5h-0.3v-38.7h-24.7v103.7h24.7v-41.1c0-8.2,4.1-16.1,13.4-16.1
		c13.5,0,12.3,10.4,12.3,20.8v36.6h0.8l23.1-58.4C557.5,770.8,551.4,761,533.2,761z"/>
</g>
<circle fill="#DA0B48" cx="578.8" cy="824.3" r="16.5"/>
</svg>
