<?xml version="1.0" encoding="utf-8"?>
<!-- Generator: Adobe Illustrator 18.0.0, SVG Export Plug-In . SVG Version: 6.00 Build 0)  -->
<!DOCTYPE svg PUBLIC "-//W3C//DTD SVG 1.1//EN" "http://www.w3.org/Graphics/SVG/1.1/DTD/svg11.dtd">
<svg version="1.1" id="Layer_1" xmlns="http://www.w3.org/2000/svg" xmlns:xlink="http://www.w3.org/1999/xlink" x="0px" y="0px"
	 viewBox="0 0 591.7 208.9" enable-background="new 0 0 591.7 208.9" xml:space="preserve">
<g>
	<path fill="#FFFFFF" d="M0,74.1h69.8V0h53v203.5h-53v-83.8H0V74.1z"/>
	<path fill="#FFFFFF" d="M183.8,141.4c0.9,20.2,12.5,33.6,33.1,33.6c11.7,0,23.1-5.4,27.6-16.2h45.3c-8.8,34.2-40.5,49-73.5,49
		c-48.2,0-80.9-29.1-80.9-78.7c0-45.3,36.2-77.8,79.8-77.8c53,0,79.5,39.9,77.2,90.1H183.8z M244,114.3
		c-0.9-16.5-12.5-30.2-28.8-30.2c-17.1,0-28.5,12.3-31.4,30.2H244z"/>
	<path fill="#FFFFFF" d="M304.1,0h48.5v203.5h-48.5V0z"/>
	<path fill="#FFFFFF" d="M374.2,0h48.5v203.5h-48.5V0z"/>
	<path fill="#FFFFFF" d="M513.3,51.3c-45.9,0-77.8,33.9-77.8,78.4c0,41.2,27.4,73.1,68,77.5l14.6-36.9c-1.5,0.2-3.1,0.4-4.7,0.4
		c-22.5,0-29.4-22.2-29.4-41c0-18.8,6.8-41.3,29.4-41.3c15.9,0,24.1,11.2,27.6,24.4l18.7-47.3C546.9,56.5,531.1,51.3,513.3,51.3z"/>
</g>
<circle fill="#DB0B48" cx="572.4" cy="189.5" r="19.4"/>
</svg>
