<?xml version="1.0" encoding="UTF-8"?>
<!-- Generator: Adobe Illustrator 18.0.0, SVG Export Plug-In . SVG Version: 6.00 Build 0)  -->
<!DOCTYPE svg PUBLIC "-//W3C//DTD SVG 1.1//EN" "http://www.w3.org/Graphics/SVG/1.1/DTD/svg11.dtd">
<svg version="1.1" id="Layer_1" xmlns="http://www.w3.org/2000/svg" xmlns:xlink="http://www.w3.org/1999/xlink" x="0px" y="0px" viewBox="0 246.8 595.3 335.5" enable-background="new 0 246.8 595.3 335.5" xml:space="preserve">
<g>
	<path fill="#DB0E49" d="M218.3,404.6c1,22.5,14,37.5,36.9,37.5c13.1,0,25.8-6,30.8-18.1h50.6c-9.8,38.2-45.2,54.7-82,54.7   c-53.8,0-90.3-32.5-90.3-87.8c0-50.6,40.4-86.8,89.1-86.8c59.2,0,88.7,44.5,86.2,100.6H218.3z M285.4,374.3   c-1-18.4-14-33.7-32.1-33.7c-19.1,0-31.8,13.7-35,33.7H285.4z"/>
	<path fill="#DB0E49" d="M396.8,404.6c1,22.5,14,37.5,36.9,37.5c13.1,0,25.8-6,30.8-18.1h50.6c-9.8,38.2-45.2,54.7-82,54.7   c-53.8,0-90.3-32.5-90.3-87.8c0-50.6,40.4-86.8,89.1-86.8c59.2,0,88.7,44.5,86.2,100.6H396.8z M463.9,374.3   c-1-18.4-14-33.7-32.1-33.7c-19.1,0-31.8,13.7-35,33.7H463.9z"/>
	<path fill="#DB0E49" d="M541.3,258.8v49.9h-27.3v35h27.3v73.4c0,8.6,0.4,16.1,1.5,22.5l52.6-132.9v-48L541.3,258.8L541.3,258.8z"/>
	<polygon fill="#DB0E49" points="62.1,246.8 23,398.2 22.3,398.2 0,311.7 0,473.6 0.1,473.9 45.2,473.9 93,301.5 93.7,301.5    93.7,473.9 149.2,473.9 149.2,246.8  "/>
</g>
<g>
	<path fill="#FFFFFF" d="M70.7,528.7H57.4v29.8c0,5.1,3,6.4,7.7,6.4c1.8,0,3.7-0.2,5.6-0.2v15.7c-3.9,0.1-7.8,0.7-11.7,0.7   c-18.3,0-23-5.2-23-23.1v-29.1H25.1v-13.8h10.8v-19.8h21.4v19.8h13.3C70.7,514.9,70.7,528.7,70.7,528.7z"/>
	<path fill="#FFFFFF" d="M73.9,490.3h21.4v33.6h0.2c3.2-6.7,12.1-10.8,20-10.8c21.9,0,23.6,15.9,23.6,25.3v42h-21.4v-31.7   c0-8.9,1-18.1-10.7-18.1c-8,0-11.6,6.8-11.6,14v35.7H73.9V490.3z"/>
	<path fill="#FFFFFF" d="M165.4,552.8c0.3,8.9,5.6,14.8,14.6,14.8c5.1,0,10.3-2.3,12.3-7.1h20.1c-3.9,15.2-17.9,21.7-32.6,21.7   c-21.3,0-35.8-12.8-35.8-34.8c0-20.1,16.1-34.5,35.3-34.5c23.4,0,35.2,17.6,34.2,39.8h-48V552.8z M192,540.8   c-0.3-7.4-5.6-13.4-12.7-13.4c-7.6,0-12.6,5.5-13.8,13.4H192z"/>
	<path fill="#FFFFFF" d="M290.8,528.7h-13.3v29.8c0,5.1,3,6.4,7.7,6.4c1.8,0,3.7-0.2,5.6-0.2v15.7c-3.9,0.1-7.8,0.7-11.7,0.7   c-18.3,0-23-5.2-23-23.1v-29.1h-10.8v-13.8h10.8v-19.8h21.4v19.8h13.3V528.7z"/>
	<path fill="#FFFFFF" d="M312.3,552.8c0.3,8.9,5.6,14.8,14.6,14.8c5.1,0,10.3-2.3,12.3-7.1h20.1c-3.9,15.2-17.9,21.7-32.6,21.7   c-21.3,0-35.8-12.8-35.8-34.8c0-20.1,16.1-34.5,35.3-34.5c23.4,0,35.2,17.6,34.2,39.8h-48V552.8z M338.9,540.8   c-0.3-7.4-5.6-13.4-12.7-13.4c-7.6,0-12.6,5.5-13.8,13.4H338.9z"/>
	<path fill="#FFFFFF" d="M363.9,535c0.3-8.6,4.5-14.2,10.3-17.5c5.8-3.2,13.4-4.6,20.8-4.6c15.5,0,30.5,3.5,30.5,22v28.7   c0,5.6,0,11.6,2.6,16.7h-21.5c-0.8-2-1-4-1.2-6.1c-5.6,5.8-13.7,8-21.5,8c-12.5,0-22.3-6.4-22.3-19.8c0-21.3,23.2-19.6,38.1-22.7   c3.7-0.8,5.7-2,5.7-6c0-4.9-5.9-6.8-10.4-6.8c-5.9,0-9.7,2.7-10.7,8.1h-20.1V535z M391.7,569c10.3,0,13.6-5.8,13.2-19.3   c-3,1.9-8.6,2.2-13.3,3.6c-4.8,1.1-8.8,3.1-8.8,8.4C382.8,566.8,386.9,569,391.7,569z"/>
	<path fill="#FFFFFF" d="M492.1,523.5c-3.6-7.9-10.8-10.6-19.1-10.6c-7.9,0-14.8,4.2-18.8,10.8h-0.2v-8.9h-20.8v65.5h21.4v-31.9   c0-13.4,3.2-17.7,10.9-17.7c5.8,0,8,4.8,8,12.5v37.2h4l26.1-65.9C499.3,516.1,495.5,519.2,492.1,523.5z"/>
</g>
<circle fill="#DB0E49" cx="523.4" cy="567.2" r="14.3"/>
</svg>