<svg id="Template_past_projects.svg" data-name="Template past_projects.svg" xmlns="http://www.w3.org/2000/svg" viewBox="0 0 717.54 388.41"><defs><style>.cls-1{fill:#f28e00;}.cls-2{fill:#fff;}.cls-3{fill:#dc144b;}</style></defs><title>past_projects</title><path class="cls-1" d="M254.3,164.9q-13.86-21.36-39.53-33t-60.51-11.62H40.72V382.6h60.7V310.28h52.84q34.85,0,60.51-11.43t39.53-33q13.86-21.54,13.86-50.4Q268.16,186.26,254.3,164.9ZM192.47,249q-14.24,11.8-41.59,11.8H101.42v-91h49.46q27.35,0,41.59,11.8t14.24,33.91Q206.71,237.22,192.47,249Z" transform="translate(-40.72 -120.31)"/><path class="cls-1" d="M443.52,200.31Q418.41,178,371.58,178a177.32,177.32,0,0,0-47.4,6.37q-23,6.38-39.53,18l21,40.84a84,84,0,0,1,26.42-13.68,101.77,101.77,0,0,1,31.66-5.05q23.22,0,34.85,10.3t11.61,29.41H363.71q-44.22,0-65.39,16.12t-21.17,44.21a56.49,56.49,0,0,0,9,31.47q9,13.88,26,21.74t40.28,7.87q45,0,61.45-28.11V382.6h54.7v-115Q468.62,222.6,443.52,200.31ZM410.17,318.9a38,38,0,0,1-16.48,20.42,50.87,50.87,0,0,1-26.61,6.93q-15.36,0-24.17-6.55a21,21,0,0,1-8.8-17.8q0-23.61,36-23.61h40.09Z" transform="translate(-40.72 -120.31)"/><path class="cls-1" d="M657.84,287.05A60.87,60.87,0,0,0,630.49,270q-15.74-4.68-40.47-8.8-22.11-3.37-32.22-7.12T547.68,241q0-8.24,9.37-13.49t28.1-5.24a116.37,116.37,0,0,1,58.08,15l19.48-41.6q-13.86-8.24-35-12.92A196.53,196.53,0,0,0,585.15,178q-28.86,0-50,8.25t-32.22,23a55.18,55.18,0,0,0-11.06,33.91q0,22.86,11.81,35.22a63.19,63.19,0,0,0,27.91,17.24q16.11,4.88,40.84,8.62,21,2.63,31.1,6.37T613.63,323q0,18.36-37.1,18.36A136.7,136.7,0,0,1,539.06,336Q520,330.52,506.47,321.9l-19.49,42q14.24,9.38,38.22,15.55a195.88,195.88,0,0,0,49.09,6.19q29.6,0,51.14-8.06t32.79-22.67a53.24,53.24,0,0,0,11.24-33.35Q669.46,299.43,657.84,287.05Z" transform="translate(-40.72 -120.31)"/><path class="cls-1" d="M758.26,185.51H756V136.42H697.56v49.09h-31.1v45h31.1v82.81a101.92,101.92,0,0,0,2.18,21.78Z" transform="translate(-40.72 -120.31)"/><text x="-40.72" y="-120.31"></text><path class="cls-2" d="M235.35,432.25a30.73,30.73,0,0,0-12-12,34,34,0,0,0-16.93-4.27q-13.78,0-21,8.67v-7.69H167v90.82h19.35V476.6q7.32,8.06,20.1,8.06a34,34,0,0,0,16.93-4.28,30.64,30.64,0,0,0,12-12,39.7,39.7,0,0,0,0-36.1Zm-20,31.51a17.4,17.4,0,0,1-24.43,0c-3.19-3.36-4.77-7.83-4.77-13.46s1.58-10.12,4.77-13.46a17.35,17.35,0,0,1,24.43,0q4.78,5,4.79,13.46C220.1,455.93,218.5,460.4,215.31,463.76Z" transform="translate(-40.72 -120.31)"/><path class="cls-2" d="M280.44,418.42a21.38,21.38,0,0,0-9.36,7.32v-8.82H252.59v66.75h19.35V452.16c0-6.21,1.58-10.85,4.72-14s7.49-4.65,13-4.65c.74,0,2.18.09,4.33.25V415.94A34.7,34.7,0,0,0,280.44,418.42Z" transform="translate(-40.72 -120.31)"/><path class="cls-2" d="M368.58,432.55a32.75,32.75,0,0,0-13-12.21,42.73,42.73,0,0,0-37.77,0,32.75,32.75,0,0,0-13.09,12.21,35.7,35.7,0,0,0,0,35.48,32.86,32.86,0,0,0,13.09,12.23,42.73,42.73,0,0,0,37.77,0,32.87,32.87,0,0,0,13-12.23,35.7,35.7,0,0,0,0-35.48Zm-19.65,31.21a17.49,17.49,0,0,1-24.51,0c-3.22-3.36-4.84-7.83-4.84-13.46s1.62-10.12,4.84-13.46a17.44,17.44,0,0,1,24.51,0q4.77,5,4.77,13.46C353.7,455.93,352.11,460.4,348.93,463.76Z" transform="translate(-40.72 -120.31)"/><path class="cls-2" d="M387.07,416.92v66.75q0,4.83-2.11,7.25a7.32,7.32,0,0,1-5.83,2.43,13.94,13.94,0,0,1-8.19-2.36l-5.21,14q5.34,3.72,15.5,3.72,11.92,0,18.56-6.75t6.63-18.42V416.92Z" transform="translate(-40.72 -120.31)"/><path class="cls-2" d="M489.66,450.54a36.11,36.11,0,0,0-4.53-18.29,30.76,30.76,0,0,0-12.47-12.1,39.6,39.6,0,0,0-35.91.19A32.44,32.44,0,0,0,424,432.62,35.8,35.8,0,0,0,424,468a32.44,32.44,0,0,0,13.4,12.23,43.66,43.66,0,0,0,20,4.4q18.1,0,27.53-10.79L474.65,462.7a22.56,22.56,0,0,1-7.5,4.91,26,26,0,0,1-9.25,1.55,21.34,21.34,0,0,1-12.65-3.61,15.71,15.71,0,0,1-6.46-9.8h50.49C489.53,452.53,489.66,450.79,489.66,450.54Zm-51.11-6.08A15.88,15.88,0,0,1,444,434.29a16.72,16.72,0,0,1,11.05-3.71A16.32,16.32,0,0,1,466,434.36a16.06,16.06,0,0,1,5.46,10.1Z" transform="translate(-40.72 -120.31)"/><path class="cls-2" d="M534.69,468.77a17,17,0,0,1-12.53-5q-5-4.95-5-13.51t5-13.53a17,17,0,0,1,12.53-5q9.79,0,15,9.18l15-8.06a26.06,26.06,0,0,0-11.48-12.59,37,37,0,0,0-18.42-4.4,41,41,0,0,0-19.16,4.4,33,33,0,0,0-13.28,12.21,33.66,33.66,0,0,0,13.28,47.71,41.1,41.1,0,0,0,19.16,4.4,36.63,36.63,0,0,0,18.42-4.47,26.63,26.63,0,0,0,11.48-12.4l-15-8.19C546.3,465.73,541.31,468.77,534.69,468.77Z" transform="translate(-40.72 -120.31)"/><path class="cls-2" d="M614.7,466.8a12.44,12.44,0,0,1-7.81,2.48,8,8,0,0,1-6.14-2.3,9.05,9.05,0,0,1-2.18-6.51V433.31H615.2V418.42H598.57V402.17H579.22v16.25H568.93v14.89h10.29v27.4q0,11.81,6.51,17.86t18.43,6.09a35.67,35.67,0,0,0,8.75-1.06,19.79,19.79,0,0,0,7-3.16Z" transform="translate(-40.72 -120.31)"/><path class="cls-2" d="M650.62,469.88a47.15,47.15,0,0,1-9-1.66,40.36,40.36,0,0,1-10.79-4.65l-6.45,13.89A41.88,41.88,0,0,0,637,482.61a68.18,68.18,0,0,0,8,1.54Zm20.49-52.36-.15,0a64.69,64.69,0,0,0-14.08-1.55,45.54,45.54,0,0,0-16.56,2.72,23.57,23.57,0,0,0-10.67,7.63A18.3,18.3,0,0,0,626,437.52q0,7.56,3.91,11.65a20.9,20.9,0,0,0,9.24,5.72,100.19,100.19,0,0,0,13.53,2.85c.9.12,1.76.23,2.56.35l5.58-14.22-2.32-.4a58.4,58.4,0,0,1-10.66-2.36q-3.36-1.23-3.36-4.34c0-1.81,1-3.31,3.11-4.47s5.16-1.72,9.3-1.72a40.06,40.06,0,0,1,8.76.94Z" transform="translate(-40.72 -120.31)"/><circle class="cls-3" cx="663.5" cy="342.51" r="16.55"/></svg>