<?xml version="1.0" encoding="utf-8"?>
<!-- Generator: Adobe Illustrator 18.0.0, SVG Export Plug-In . SVG Version: 6.00 Build 0)  -->
<!DOCTYPE svg PUBLIC "-//W3C//DTD SVG 1.1//EN" "http://www.w3.org/Graphics/SVG/1.1/DTD/svg11.dtd">
<svg version="1.1" id="Layer_1" xmlns="http://www.w3.org/2000/svg" xmlns:xlink="http://www.w3.org/1999/xlink" x="0px" y="0px"
	 viewBox="0 0 500 302.2" enable-background="new 0 0 500 302.2" xml:space="preserve">
<g>
	<path fill="#E72679" d="M120.7,0h48.5v75.8h0.6c7.4-15.1,27.4-24.5,45-24.5c49.3,0,53.3,35.9,53.3,57.3v94.9h-48.5V132
		c0-20.2,2.3-40.8-24.2-40.8c-18.2,0-26.2,15.4-26.2,31.6v80.7h-48.5V0z"/>
	<path fill="#E72679" d="M284,101.2c0.9-19.4,10-31.9,23.1-39.6c13.1-7.4,30.2-10.3,47-10.3c35.1,0,69,7.7,69,49.6v64.7
		c0,12.5,0,26.2,5.7,37.9H380c-1.7-4.6-2.3-9.1-2.9-14c-12.5,13.1-31.1,18.2-48.7,18.2c-28.2,0-50.4-14.3-50.4-44.7
		c0-48.2,52.4-44.5,86.1-51.3c8.3-1.7,12.8-4.6,12.8-13.7c0-11.1-13.4-15.4-23.4-15.4c-13.4,0-21.9,6-24.2,18.5H284z M346.7,177.8
		c23.1,0,30.8-13.1,29.6-43.6c-6.8,4.3-19.4,5.1-29.9,8c-10.8,2.6-20,7.1-20,18.8C326.5,173,335.9,177.8,346.7,177.8z"/>
	<path fill="#E72679" d="M451.6,10.8v44.7h-24.5v31.4h24.5v65.8c0,7.7,0.4,14.4,1.3,20.2L500,53.9v-43H451.6z"/>
	<polygon fill="#E72679" points="69.4,55.6 45.2,151.1 44.6,151.1 22.9,55.6 0,55.6 0,105.2 0.1,105.2 23.5,203.5 72.5,203.5 
		118.7,55.6 	"/>
</g>
<g>
	<path fill="#FFFFFF" d="M194.5,299.5h-19.4l-9.3-39h-0.2l-9.2,39H137l-18.3-58.7h19.4l9.8,38h0.2l8.4-38h18.3l8.6,37.9h0.2
		l9.6-37.9h19.5L194.5,299.5z"/>
	<path fill="#FFFFFF" d="M230,274.9c0.3,8,5,13.3,13.1,13.3c4.6,0,9.2-2.1,11-6.4h18c-3.5,13.6-16,19.4-29.2,19.4
		c-19.1,0-32.1-11.5-32.1-31.2c0-18,14.4-30.9,31.6-30.9c21,0,31.5,15.8,30.6,35.7H230z M253.9,264.1c-0.3-6.6-5-12-11.4-12
		c-6.8,0-11.3,4.9-12.4,12H253.9z"/>
	<path fill="#FFFFFF" d="M365,299.5h-18.3v-6.8h-0.2c-3.7,5.5-9.4,8.5-16.2,8.5c-18.4,0-26.2-15.8-26.2-32.3
		c0-15.3,8.1-29.7,24.7-29.7c7.2,0,12.8,2.7,16.7,8h0.2v-28.4H365V299.5z M323.3,269.5c0,8,2.9,17,11.8,17c9.4,0,11.4-8.9,11.4-16.4
		c0-8.5-3.1-16.3-11.4-16.3C326.3,253.8,323.3,262.1,323.3,269.5z"/>
	<path fill="#FFFFFF" d="M400.8,239.1c-18.3,0-31,13.5-31,31.2c0,16.4,10.9,29.1,27.1,30.9l5.8-14.7c-0.6,0.1-1.2,0.1-1.9,0.1
		c-9,0-11.7-8.9-11.7-16.3c0-7.5,2.7-16.5,11.7-16.5c6.3,0,9.6,4.4,11,9.7l7.5-18.8C414.2,241.2,407.9,239.1,400.8,239.1z"/>
</g>
<circle fill="#DB0E49" cx="447.1" cy="289.4" r="12.8"/>
</svg>
