<svg id="Layer_1" data-name="Layer 1" xmlns="http://www.w3.org/2000/svg" viewBox="0 0 725.72 178.56"><defs><style>.cls-1{fill:#e6007e;}.cls-2{font-size:28.05px;font-family:Montserrat-Bold, Montserrat;font-weight:700;}.cls-11,.cls-2{fill:#fff;}.cls-3{letter-spacing:0.01em;}.cls-4{letter-spacing:-0.02em;}.cls-5{letter-spacing:-0.01em;}.cls-6{letter-spacing:-0.01em;}.cls-7{letter-spacing:0em;}.cls-8{letter-spacing:0em;}.cls-9{letter-spacing:0.01em;}.cls-10{letter-spacing:0em;}</style></defs><title>Atlancey logo</title><path class="cls-1" d="M207.85,303.72c-.68,1.79-.7,2.27-.95,2.47-19.58,15.4-22.64,15.19-40.55-1.77Q147,286.08,127.27,268.1c-4.49-4.1-5.42-6.63,1.47-8.9q74.44-24.54,148.83-49.3c.63-.21,1.42.07,4.41.28-11.73,17.92-15.13,40.43-42.41,43.48-19,2.13-37.5,8.49-56,15.53,16.83-1.18,33.66-2.38,50.5-3.51,3.82-.25,8.89-3.26,11.06,1.29,1.77,3.73-3.49,5.85-5.49,8.78-10.12,14.77-23.67,21.12-41.71,18.09-6.1-1-12.52-.16-19.27,1.89Z" transform="translate(-43.41 -209.82)"/><path class="cls-1" d="M43.41,246.44c13.43,1.56,25-2.9,36.86-6,8.08-2.13,17.83-.06,21.14,8.44,9.5,24.34,32.11,36.17,48.74,53.65a204.07,204.07,0,0,0,15.45,14.39c6.06,5.16,3.77,7.25-2,11-14.51,9.43-29.79,6.81-45.17,4.75-11.21-1.5-21.49-3.26-31.69-10.83-16-11.83-22.59-25.46-19.61-44.46,1.77-11.29-2.85-18.3-13.49-22.2C50.06,253.86,46,252.4,43.41,246.44Z" transform="translate(-43.41 -209.82)"/><path class="cls-1" d="M221.69,354.62c-15.38-.69-31.14,16.46-46.95-3.27,6.65,17.62-7,24.59-15.65,34-1.39,1.51-2.88,4-5.43,2.63-2.23-1.22-1.64-3.91-1.67-6-.22-12.19-.54-24.39-.42-36.58.07-6.95,19.47-18,27.23-14.74,14.83,6.32,29.16,13.79,43.7,20.78Z" transform="translate(-43.41 -209.82)"/><text class="cls-2" transform="translate(267.07 166.19)">Givi<tspan class="cls-3" x="55.29" y="0">n</tspan><tspan x="74.84" y="0">g </tspan><tspan class="cls-4" x="102.41" y="0">y</tspan><tspan x="118.76" y="0">our d</tspan><tspan class="cls-5" x="195.84" y="0">r</tspan><tspan class="cls-6" x="207.68" y="0">e</tspan><tspan x="224.96" y="0">ams </tspan><tspan class="cls-7" x="294.52" y="0">W</tspan><tspan class="cls-8" x="327.01" y="0">i</tspan><tspan class="cls-9" x="335.45" y="0">n</tspan><tspan class="cls-10" x="355" y="0">gs</tspan></text><path class="cls-11" d="M483.27,310.49c0-12.77-.21-25.55.11-38.31.12-4.86-2.23-11.23,4.8-13.54s11.37,1.77,15.23,6.88c8.18,10.81,16.44,21.56,24.68,32.33,1.53,2,2.63,4.56,6.4,5.06,2.63-10.49.82-21,1.28-31.26.28-6.12.82-11.24,9-11.26,8,0,9.14,4.71,9.11,11.06-.08,18.08.07,36.16-.09,54.24,0,4.27,1.28,9.76-4.71,11.34-5.68,1.5-11.19,1.13-15.27-4.24-9.11-12-18.33-23.91-27.53-35.83-1.12-1.45-2.41-2.75-6.64-3.95,0,10.09.43,20.21-.17,30.26-.35,6,3.74,14.91-6.86,16.25-9.34,1.18-19.43,2.38-22.56-10.48-3.18-13.08-13.41-11.26-23.3-12-10.27-.74-14.39,4.59-16.71,12.91-2.07,7.42-6.84,10-14.29,9.76-11.29-.37-22.62-.49-33.9,0-9.37.44-13.05-4-13.21-12.66-.24-13.18-.57-26.36-.58-39.54,0-7-1.81-11.5-10.13-11.45s-10.15,4.44-10.05,11.52c.18,13.18.05,26.37,0,39.55,0,6.18.35,12.4-8.8,12.53-8.92.13-9.33-5.55-9.3-12.05.06-12.05-.51-24.14.16-36.15.6-10.67-2.13-16.77-14.21-15.53-4.61.48-9.31-.55-10.19-6.5-1-6.51.47-11.3,8.45-11.28,20.34.05,40.68.08,61,0,6.92,0,9.19,3.64,9.15,10-.09,14.31.38,28.64-.11,42.94-.31,9.12,2.83,12.33,12.26,12.81,12.87.65,21.13-2.23,25.36-15.85s11.06-26.36,16.54-39.58c2.07-5,4.94-8,10.81-8.13,6.09-.13,9.93,2.18,12.33,7.75,6.23,14.44,12.67,28.78,19,43.17Zm158.5,17.45c-.08,6.44,2.51,9.82,9.32,9.76,14.3-.14,28.6,0,42.9-.05,4.7,0,8.18-1.54,8.18-7s-3.55-6.94-8.22-7c-7.91,0-15.81,0-23.71-.1-5.78-.05-12,.21-11.9-8.18.12-8.77,6.92-7.28,12.34-7.49,6.39-.24,12.8-.07,19.19-.29s8.4-4,8.1-9.81-4.11-6.23-8.68-6.11c-7.15.17-14.3.06-21.45,0-5,0-7.71-2.35-7.67-7.58s2.79-7.53,7.74-7.55c8.66-.05,17.31,0,26,0,4.09,0,7,2,9.51,5.14,10.65,12.89,21,25.68,17.8,44.28-1,5.73,0,11.43,8.32,11.69,8.76.26,10.25-5.18,9.44-11.76-1.79-14.55,3.36-26.31,12.66-37.12,5.62-6.53,10.11-14,15.1-21.11s2-8.92-5.32-9.37c-9.43-.58-12.91,6.23-17.21,12.37-13.26,18.94-13.25,18.91-26.2.1-4-5.79-7.06-12.55-16-12.41-16.93.25-33.87.12-50.81,0-6.66,0-9.52,3.15-9.42,9.7.15,9.79,0,19.57,0,29.36C641.8,307.62,641.89,317.78,641.77,327.94Zm-352-16.82c4.63,11.17,3.94,12.16-8,12.35-10.15.16-20.3,0-30.44.22-7.39.15-9.64,6-10,11.54-.39,6.6,5.81,4.48,9.35,4.52,19.92.24,39.84.07,59.76.14,6,0,9.72-.85,6.34-8.31-9.63-21.21-19-42.56-28.3-63.9-2-4.55-4.7-7.36-10.13-7.24s-8,3.37-9.89,7.76c-5.68,13.51-11.21,27.08-17,40.53-3.06,7.07.07,8.66,6.44,8.51,5.39-.12,8.05-3.21,9.93-7.7,3-7.15,6.1-14.26,10.36-24.17C282.88,295.7,286.56,303.32,289.8,311.12Zm343.6,9.79c4.58-6.83,1.49-9.36-5.38-10.18-6.22-.74-9.32,3.9-13.36,7.15-10.35,8.31-23.52,7.09-32.35-2.77-8-8.94-7.72-23.31.62-31.83s22.21-9,31.81-1.19c1.46,1.18,2.69,2.63,4.12,3.86,4.72,4.06,11.06,6.09,15.34,2s-1.06-8.93-3.82-12.52c-11.5-14.9-31.66-19.25-48.78-10.91-16.72,8.15-25.69,26.39-21.63,44,4.59,19.91,19.28,31.54,39.77,31.49C614.82,340.43,625.36,332.9,633.4,320.91ZM447.58,276.44l-9.5,23.3a2.4,2.4,0,0,0,2.22,3.3h19a2.39,2.39,0,0,0,2.22-3.3l-9.5-23.3A2.4,2.4,0,0,0,447.58,276.44Z" transform="translate(-43.41 -209.82)"/></svg>